<svg width="601" height="450" viewBox="0 0 601 450" fill="none" xmlns="http://www.w3.org/2000/svg">
<path d="M542.966 441.716C606.844 393.144 635.293 258.46 531.573 192.416C462.906 148.7 420.199 173.584 342.95 144.719C248.645 109.423 234.589 2.78417 119.879 55.2563C59.1751 83.046 16.9794 161.371 9.56795 250.389C2.30443 337.565 33.2013 397.381 96.3401 438.313C244.61 444.621 393.176 443.451 542.966 441.716Z" fill="#DFDFDF"/>
<path d="M280.538 58.6193C270.894 97.3581 306.673 135.707 344.47 151.565C382.268 167.424 425.499 165.581 465.933 157.995C483.419 154.726 501.322 150.126 514.881 139.002C528.439 127.878 536.294 108.563 528.87 92.9596C522.305 79.2396 506.353 72.2048 491.126 68.573C475.9 64.9413 459.759 63.4751 446.2 55.8619C433.341 48.6387 424.221 36.6808 413.043 27.2114C392.396 9.72515 363.383 1.0762 336.521 6.60454C309.659 12.1329 288.743 25.6914 280.538 58.6193Z" fill="#DFDFDF"/>
<path d="M569.561 236.782V207.472H558.45C557.133 202.418 555.124 197.57 552.478 193.067L560.333 185.198L539.606 164.47L531.737 172.325C527.232 169.678 522.385 167.664 517.331 166.339V155.229H488.035V166.339C482.982 167.662 478.135 169.672 473.629 172.312L465.76 164.456L445.032 185.171L452.887 193.04C450.247 197.546 448.238 202.393 446.915 207.446H435.818V236.755H446.928C448.251 241.808 450.261 246.655 452.901 251.161L445.045 259.03L465.773 279.758L473.642 271.902C478.151 274.537 482.998 276.546 488.048 277.875V288.985H517.331V277.875C522.382 276.548 527.229 274.539 531.737 271.902L539.606 279.758L560.333 259.03L552.478 251.161C555.124 246.657 557.133 241.81 558.45 236.755L569.561 236.782ZM502.696 247.543C497.673 247.545 492.761 246.058 488.583 243.269C484.405 240.481 481.148 236.515 479.224 231.875C477.3 227.235 476.795 222.128 477.774 217.201C478.752 212.274 481.17 207.748 484.721 204.195C488.272 200.642 492.797 198.222 497.723 197.241C502.65 196.26 507.757 196.762 512.398 198.684C517.039 200.606 521.006 203.861 523.797 208.037C526.588 212.214 528.078 217.124 528.078 222.147C528.071 228.876 525.394 235.326 520.635 240.083C515.876 244.839 509.424 247.512 502.696 247.516V247.543Z" fill="#1F51FF"/>
<path d="M480.982 310.273L475.413 295.733L469.898 297.858C468.285 295.599 466.366 293.575 464.195 291.846L466.602 286.465L452.371 280.13L449.964 285.51C447.23 285.057 444.446 284.98 441.691 285.281L439.566 279.767L425.039 285.295L427.151 290.81C424.896 292.423 422.877 294.343 421.152 296.513L415.771 294.105L409.436 308.336L414.816 310.744C414.367 313.479 414.295 316.262 414.601 319.016L409.086 321.142L414.668 335.669L420.17 333.557C421.787 335.809 423.706 337.827 425.873 339.556L423.479 344.936L437.696 351.272L440.104 345.891C442.843 346.34 445.631 346.413 448.39 346.107L450.502 351.621L465.042 346.039L462.917 340.538C465.173 338.921 467.196 337.002 468.929 334.835L474.31 337.229L480.645 323.011L475.265 320.604C475.718 317.865 475.795 315.077 475.494 312.318L480.982 310.273ZM449.869 328.324C447.388 329.267 444.684 329.454 442.096 328.862C439.509 328.27 437.155 326.926 435.329 324.999C433.504 323.073 432.29 320.649 431.839 318.033C431.389 315.418 431.722 312.727 432.797 310.301C433.872 307.874 435.641 305.82 437.881 304.396C440.122 302.973 442.733 302.244 445.386 302.302C448.04 302.359 450.617 303.2 452.793 304.719C454.97 306.238 456.648 308.367 457.617 310.838C458.258 312.491 458.566 314.254 458.524 316.027C458.481 317.799 458.088 319.546 457.368 321.166C456.648 322.786 455.615 324.247 454.328 325.467C453.041 326.686 451.526 327.639 449.869 328.271V328.324Z" stroke="#1F51FF" stroke-miterlimit="10"/>
<path d="M433.38 259.233L429.614 249.414L425.888 250.84C424.796 249.325 423.501 247.968 422.041 246.804L423.655 243.159L414.051 238.882L412.423 242.527C410.574 242.215 408.691 242.165 406.828 242.379L405.402 238.653L395.583 242.419L397.009 246.145C395.494 247.237 394.137 248.532 392.973 249.992L389.328 248.378L385.051 257.982L388.696 259.61C388.384 261.459 388.334 263.342 388.548 265.205L384.822 266.631L388.588 276.45L392.314 275.024C393.406 276.539 394.701 277.896 396.161 279.06L394.547 282.705L404.151 286.982L405.779 283.337C407.628 283.649 409.511 283.699 411.374 283.485L412.8 287.211L422.619 283.445L421.193 279.719C422.708 278.627 424.065 277.332 425.229 275.872L428.874 277.486L433.151 267.882L429.506 266.254C429.818 264.405 429.868 262.522 429.654 260.659L433.38 259.233ZM412.356 271.433C410.672 272.079 408.835 272.212 407.075 271.814C405.316 271.416 403.714 270.505 402.473 269.196C401.231 267.888 400.406 266.241 400.1 264.463C399.795 262.686 400.023 260.857 400.757 259.21C401.49 257.562 402.696 256.169 404.222 255.206C405.747 254.244 407.523 253.755 409.327 253.802C411.13 253.849 412.878 254.43 414.351 255.471C415.824 256.512 416.955 257.966 417.602 259.65C418.031 260.768 418.236 261.96 418.205 263.157C418.174 264.354 417.907 265.534 417.42 266.628C416.932 267.722 416.235 268.71 415.366 269.534C414.497 270.359 413.474 271.004 412.356 271.433Z" stroke="#1F51FF" stroke-miterlimit="10"/>
<path d="M429.963 87.3099C429.963 96.4701 427.247 105.425 422.158 113.041C417.068 120.657 409.834 126.593 401.371 130.098C392.908 133.602 383.596 134.519 374.612 132.731C365.628 130.943 357.376 126.531 350.9 120.052C344.423 113.574 340.014 105.321 338.228 96.3367C336.443 87.3522 337.362 78.04 340.869 69.5779C344.377 61.1158 350.314 53.8839 357.932 48.7967C365.55 43.7095 374.505 40.9957 383.665 40.9983C389.748 40.9912 395.773 42.1844 401.394 44.5094C407.015 46.8345 412.123 50.2457 416.423 54.5477C420.724 58.8497 424.134 63.958 426.457 69.5799C428.781 75.2018 429.972 81.2269 429.963 87.3099Z" fill="#1F51FF" stroke="#0097D8" stroke-miterlimit="10"/>
<path d="M385.539 87.0983C393.848 86.0722 399.752 78.5045 398.726 70.1955C397.699 61.8864 390.132 55.9824 381.823 57.0085C373.514 58.0346 367.61 65.6023 368.636 73.9114C369.662 82.2204 377.23 88.1244 385.539 87.0983Z" fill="white"/>
<path d="M412.364 117.779C404.186 124.234 394.072 127.745 383.653 127.745C373.235 127.745 363.12 124.234 354.942 117.779C357.901 104.745 360.632 93.5 363.457 90.6484C367.492 86.6131 378.105 84.313 383.633 84.313C389.161 84.313 400.312 87.1511 402.37 89.2091C406.567 93.3924 410.252 104.947 412.364 117.779Z" fill="white"/>
<path d="M317.112 201.436V178.57C317.112 175.573 318.302 172.699 320.421 170.58C322.54 168.461 325.414 167.271 328.41 167.271H400.454C403.45 167.271 406.324 168.461 408.443 170.58C410.562 172.699 411.752 175.573 411.752 178.57V201.436C411.752 204.433 410.562 207.307 408.443 209.426C406.324 211.545 403.45 212.735 400.454 212.735H328.424C326.939 212.737 325.468 212.446 324.096 211.879C322.723 211.312 321.476 210.48 320.426 209.43C319.375 208.381 318.542 207.135 317.973 205.763C317.404 204.391 317.112 202.921 317.112 201.436Z" fill="#1F51FF"/>
<path d="M347.525 200.252L312.66 234.216L369.168 205.646" fill="#1F51FF"/>
<path d="M325.841 178.005V177.884C325.841 177.438 326.018 177.011 326.333 176.695C326.649 176.38 327.076 176.203 327.522 176.203H363.167C363.613 176.203 364.041 176.38 364.356 176.695C364.671 177.011 364.848 177.438 364.848 177.884V178.005C364.848 178.451 364.671 178.879 364.356 179.194C364.041 179.51 363.613 179.687 363.167 179.687H327.522C327.076 179.687 326.649 179.51 326.333 179.194C326.018 178.879 325.841 178.451 325.841 178.005Z" fill="white"/>
<path d="M366.425 178.005V177.884C366.425 177.438 366.602 177.011 366.917 176.695C367.232 176.38 367.66 176.203 368.106 176.203H399.191C399.637 176.203 400.065 176.38 400.38 176.695C400.695 177.011 400.872 177.438 400.872 177.884V178.005C400.872 178.451 400.695 178.879 400.38 179.194C400.065 179.51 399.637 179.687 399.191 179.687H368.106C367.66 179.687 367.232 179.51 366.917 179.194C366.602 178.879 366.425 178.451 366.425 178.005Z" fill="white"/>
<path d="M352.865 185.672V185.551C352.865 185.105 353.043 184.677 353.358 184.362C353.673 184.047 354.101 183.869 354.547 183.869H399.204C399.65 183.869 400.078 184.047 400.393 184.362C400.708 184.677 400.885 185.105 400.885 185.551V185.672C400.885 186.118 400.708 186.545 400.393 186.861C400.078 187.176 399.65 187.353 399.204 187.353H354.547C354.101 187.353 353.673 187.176 353.358 186.861C353.043 186.545 352.865 186.118 352.865 185.672Z" fill="white"/>
<path d="M325.841 185.659V185.538C325.837 185.315 325.878 185.093 325.961 184.886C326.044 184.679 326.167 184.491 326.324 184.332C326.48 184.173 326.667 184.046 326.873 183.96C327.078 183.874 327.299 183.83 327.522 183.83H347.47C347.916 183.83 348.344 184.007 348.659 184.322C348.974 184.637 349.151 185.065 349.151 185.511V185.632C349.151 186.078 348.974 186.506 348.659 186.821C348.344 187.136 347.916 187.313 347.47 187.313H327.522C327.081 187.313 326.657 187.14 326.343 186.83C326.028 186.521 325.848 186.1 325.841 185.659Z" fill="white"/>
<path d="M359.058 193.312V193.244C359.058 192.798 359.236 192.371 359.551 192.055C359.866 191.74 360.294 191.563 360.74 191.563H399.196C399.635 191.574 400.052 191.755 400.359 192.069C400.666 192.384 400.837 192.805 400.837 193.244V193.365C400.837 193.811 400.66 194.239 400.345 194.554C400.029 194.87 399.602 195.047 399.156 195.047H360.74C360.514 195.047 360.291 195.002 360.084 194.914C359.876 194.826 359.688 194.697 359.531 194.535C359.375 194.374 359.252 194.182 359.171 193.972C359.089 193.761 359.051 193.537 359.058 193.312Z" fill="white"/>
<path d="M325.841 193.312V193.244C325.841 192.798 326.018 192.371 326.334 192.055C326.649 191.74 327.077 191.563 327.523 191.563H354.088C354.534 191.563 354.962 191.74 355.277 192.055C355.592 192.371 355.769 192.798 355.769 193.244V193.365C355.769 193.811 355.592 194.239 355.277 194.554C354.962 194.87 354.534 195.047 354.088 195.047H327.523C327.297 195.047 327.074 195.002 326.866 194.914C326.659 194.826 326.471 194.697 326.314 194.535C326.157 194.374 326.035 194.182 325.953 193.972C325.872 193.761 325.834 193.537 325.841 193.312Z" fill="white"/>
<path d="M325.841 200.969V200.848C325.841 200.402 326.018 199.975 326.333 199.659C326.649 199.344 327.076 199.167 327.522 199.167H337.382C337.828 199.167 338.255 199.344 338.571 199.659C338.886 199.975 339.063 200.402 339.063 200.848V200.969C339.063 201.415 338.886 201.843 338.571 202.158C338.255 202.474 337.828 202.651 337.382 202.651H327.522C327.076 202.651 326.649 202.474 326.333 202.158C326.018 201.843 325.841 201.415 325.841 200.969Z" fill="white"/>
<path d="M342.547 200.969V200.848C342.547 200.402 342.724 199.975 343.039 199.659C343.355 199.344 343.782 199.167 344.228 199.167H399.189C399.635 199.167 400.062 199.344 400.378 199.659C400.693 199.975 400.87 200.402 400.87 200.848V200.969C400.87 201.415 400.693 201.843 400.378 202.158C400.062 202.474 399.635 202.651 399.189 202.651H344.228C343.782 202.651 343.355 202.474 343.039 202.158C342.724 201.843 342.547 201.415 342.547 200.969Z" fill="white"/>
<path d="M139.279 169.077C149.658 146.769 139.987 120.271 117.679 109.893C95.3714 99.5139 68.8737 109.184 58.4951 131.492C48.1164 153.8 57.787 180.298 80.0949 190.676C102.403 201.055 128.9 191.385 139.279 169.077Z" fill="#1F51FF"/>
<path d="M91.946 182.363C97.5743 180.387 100.535 174.222 98.5582 168.593C96.5816 162.965 90.4167 160.005 84.7884 161.981C79.1601 163.958 76.1997 170.123 78.1762 175.751C80.1527 181.379 86.3177 184.34 91.946 182.363Z" fill="white"/>
<path d="M82.717 176.022L82.1924 169.175L87.8687 165.301L94.0561 168.274L94.5807 175.12L88.9044 178.994L82.717 176.022Z" fill="#1F51FF"/>
<path d="M112.997 138.604C118.614 136.596 121.54 130.414 119.532 124.797C117.524 119.18 111.343 116.254 105.726 118.262C100.108 120.27 97.1824 126.451 99.1904 132.069C101.198 137.686 107.38 140.612 112.997 138.604Z" fill="white"/>
<path d="M104.024 131.655L104.401 122.939L110.965 117.209L117.153 120.182L116.776 128.884L110.212 134.628L104.024 131.655Z" fill="#1F51FF"/>
<path d="M95.8624 167.168L87.6035 163.214L93.7102 149.131C94.1003 148.229 94.5173 147.355 94.9746 146.44L102.144 132.882L110.403 136.836L104.511 150.758C104.054 151.834 103.556 152.883 103.005 153.906L95.8624 167.168Z" fill="white"/>
<path d="M129.822 174.251C131.422 173.511 156.979 174.668 156.979 174.668L138.551 157.76L129.822 174.251Z" fill="#1F51FF"/>
<path d="M242.602 74.9472C252.201 52.7537 241.992 26.9805 219.798 17.3812C197.605 7.78179 171.831 17.9913 162.232 40.1848C152.633 62.3783 162.842 88.1515 185.036 97.7508C207.229 107.35 233.002 97.1407 242.602 74.9472Z" fill="#1F51FF"/>
<path d="M203.895 20.25H200.977V57.0248H203.895V20.25Z" fill="white"/>
<path d="M170.122 78.2445L171.784 80.6445L202.431 59.4314L200.769 57.0314L170.122 78.2445Z" fill="white"/>
<path d="M206.478 57.5604C206.478 58.3585 206.241 59.1387 205.798 59.8023C205.354 60.4659 204.724 60.9831 203.987 61.2885C203.249 61.594 202.438 61.6739 201.655 61.5182C200.873 61.3625 200.153 60.9782 199.589 60.4138C199.025 59.8495 198.64 59.1304 198.485 58.3477C198.329 57.5649 198.409 56.7535 198.714 56.0162C199.02 55.2788 199.537 54.6486 200.201 54.2052C200.864 53.7618 201.644 53.5251 202.443 53.5251C203.513 53.5251 204.539 53.9503 205.296 54.7071C206.053 55.4638 206.478 56.4902 206.478 57.5604Z" fill="white"/>
<path d="M321.319 354.051C318.79 314.021 336.276 272.606 365.734 248.892C366.649 289.123 349.31 329.839 321.319 354.051Z" fill="#7B98FE"/>
<path d="M360.907 259.675C348.417 282.977 337.685 307.18 328.8 332.081C317.945 362.44 309.404 394.695 290.815 420.144" stroke="#6F8BBF" stroke-miterlimit="10" stroke-linecap="round"/>
<path d="M312.056 379.238C326.986 345.84 356.619 320.606 389.291 313.463C375.275 349.283 344.042 376.561 312.056 379.238Z" fill="#7B98FE"/>
<path d="M381.232 320.819C358.912 340.457 336.22 359.539 313.156 378.066" stroke="#6F8BBF" stroke-miterlimit="10" stroke-linecap="round"/>
<path d="M303.2 408.333C323.147 378.54 359.949 362.99 390.402 371.491C368.006 400.908 331.124 416.538 303.2 408.333Z" fill="#7B98FE"/>
<path d="M383.094 373.653C357.337 389.848 329.195 401.895 299.698 409.351" stroke="#6F8BBF" stroke-miterlimit="10" stroke-linecap="round"/>
<path d="M313.964 369.114C320.34 335.568 310.776 298.174 289.483 273.438C280.754 306.406 289.08 345.037 313.964 369.114Z" fill="#7B98FE"/>
<path d="M291.678 282.021C295.618 312.554 303.423 342.462 314.908 371.026" stroke="#6F8BBF" stroke-miterlimit="10" stroke-linecap="round"/>
<path d="M303.016 397.698C300.326 363.21 282.624 330.82 256.771 312.957C258.237 330.966 263.002 348.552 270.828 364.837C279.692 383.184 292.712 394.846 303.016 397.698Z" fill="#7B98FE"/>
<path d="M260.607 319.907C270.554 348.257 285.095 374.778 303.65 398.407" stroke="#6F8BBF" stroke-miterlimit="10" stroke-linecap="round"/>
<path d="M502.679 389.415C516.789 352.707 549.246 322.927 585.039 313.861C569.355 350.071 537.342 379.26 502.679 389.415Z" fill="#7B98FE"/>
<path d="M576.356 321.49C555.756 337.158 536.351 354.338 518.302 372.886C496.269 395.511 475.488 420.745 448.626 435.837" stroke="#6F8BBF" stroke-miterlimit="10" stroke-linecap="round"/>
<path d="M484.116 408.04C511.018 384.379 547.537 373.995 579.335 380.963C552.38 407.125 513.533 418.733 484.116 408.04Z" fill="#7B98FE"/>
<path d="M569.258 384.26C541.459 392.653 513.58 400.392 485.62 407.476" stroke="#6F8BBF" stroke-miterlimit="10" stroke-linecap="round"/>
<path d="M464.416 430.356C494.264 411.955 533.164 413.125 556.595 433.127C524.743 450.155 485.749 449.012 464.416 430.356Z" fill="#7B98FE"/>
<path d="M549.263 432.067C519.871 435.982 490.045 435.224 460.89 429.821" stroke="#6F8BBF" stroke-miterlimit="10" stroke-linecap="round"/>
<path d="M490.029 399.81C509.412 372.531 516.286 335.313 507.61 304.591C486.371 330.443 477.897 368.2 490.029 399.81Z" fill="#7B98FE"/>
<path d="M506.025 313.093C496.987 341.893 491.631 371.723 490.085 401.869" stroke="#6F8BBF" stroke-miterlimit="10" stroke-linecap="round"/>
<path d="M468.621 420.794C480.35 388.969 478.036 352.894 462.487 326.422C456.405 343.056 453.41 360.66 453.65 378.37C453.932 398.358 460.658 414.069 468.621 420.794Z" fill="#A2C7EB"/>
<path d="M463.014 334.197C460.195 363.466 462.181 393 468.892 421.628" stroke="#6F8BBF" stroke-miterlimit="10" stroke-linecap="round"/>
<path d="M102.795 325.245C88.4026 281.247 48.2651 245.723 1.56348 235.607C21.2018 273.674 56.8064 303.965 102.795 325.245Z" fill="#7B98FE"/>
<path d="M105.213 332.049C89.3207 323.211 71.7864 317.722 53.6912 315.919C35.596 314.117 17.3235 316.04 0 321.57C32.5991 337.848 70.044 341.578 105.213 332.049Z" fill="#7B98FE"/>
<path d="M113.93 341.602C79.8721 336.881 44.2137 345.274 16.5586 364.468C47.9127 375.915 85.535 368.517 113.93 341.602Z" fill="#7B98FE"/>
<path d="M124.535 362.439C90.8133 362.304 57.6568 378.324 37.8301 404.352C52.8992 407.353 68.5287 405.595 82.5544 399.321C96.3147 393.093 107.856 382.454 124.535 362.439Z" fill="#7B98FE"/>
<path d="M148.331 397.308C115.067 391.604 79.6501 401.908 55.667 424.209C70.0469 429.655 85.7611 430.51 100.647 426.657C115.282 422.837 128.477 414.269 148.331 397.308Z" fill="#7B98FE"/>
<path d="M112.428 327.321C90.4626 297.729 84.5038 257.847 96.9863 223.91C106.51 240.052 114.728 257.107 118.508 275.226C122.288 293.344 121.655 312.687 112.428 327.321Z" fill="#7B98FE"/>
<path d="M125.824 355.872C123.347 340.088 124.612 323.943 129.518 308.737C134.425 293.532 142.835 279.692 154.071 268.333C156.694 300.858 146.741 334.001 125.824 355.872Z" fill="#A2C7EB"/>
<path d="M11.7578 243.47C78.5957 286.231 130.853 349.975 158.441 422.368" stroke="#6F8BBF" stroke-miterlimit="10" stroke-linecap="round"/>
<path d="M99.0559 239.505C107.194 272.456 112.149 306.112 113.852 340.011" stroke="#6F8BBF" stroke-miterlimit="10" stroke-linecap="round"/>
<path d="M149.118 281.097C146.421 307.84 138.248 333.741 125.108 357.189" stroke="#6F8BBF" stroke-miterlimit="10" stroke-linecap="round"/>
<path d="M14.0693 322.386C44.7136 328.193 75.802 331.343 106.988 331.802" stroke="#6F8BBF" stroke-miterlimit="10" stroke-linecap="round"/>
<path d="M32.5266 361.906C60.7199 359.859 88.3603 353.037 114.268 341.73" stroke="#6F8BBF" stroke-miterlimit="10" stroke-linecap="round"/>
<path d="M49.4465 399.593L127.65 360.585" stroke="#6F8BBF" stroke-miterlimit="10" stroke-linecap="round"/>
<path d="M66.4019 422.565C100.446 416.001 110.548 408.159 148.332 397.317" stroke="#6F8BBF" stroke-miterlimit="10" stroke-linecap="round"/>
<path d="M281.874 360.221C281.874 360.221 284.819 387.217 288.115 389.382C294.006 393.27 362.203 402.255 362.203 402.255L359.97 419.997C359.97 419.997 266.566 428.39 262.598 423.722C255.712 415.652 243.606 376.564 243.606 376.564L281.874 360.221Z" fill="#E06A58"/>
<path d="M236.838 290.714L244.384 272.609C244.384 272.609 264.856 282.226 271.609 294.13C278.832 306.828 287.669 374.338 287.669 374.338C287.669 374.338 251.526 382.664 244.882 379.127C238.237 375.589 236.838 290.714 236.838 290.714Z" fill="#2E65FF"/>
<path d="M179.367 206.635C174.081 204.698 168.485 203.003 162.822 203.433C157.159 203.864 151.376 206.863 149.452 211.84C148.107 215.364 148.712 219.521 146.547 222.695C144.381 225.869 140.359 226.999 136.512 227.255C132.665 227.51 128.765 227.013 124.931 227.51C113.094 229.084 104.647 241.943 108.534 252.475C110.081 256.672 113.256 260.681 112.57 265.052C111.803 269.733 106.893 272.813 104.876 277.158C102.186 282.942 105.4 289.95 110.687 293.891C115.973 297.832 122.792 299.271 129.518 300.307C138.705 301.652 148.188 302.325 157.267 300.388C166.346 298.451 175.022 293.662 179.717 286.184C181.801 282.875 183.066 279.135 185.487 276.028C190.491 269.612 199.355 267.124 206.336 262.577C213.963 257.587 219.558 247.875 215.066 240.275C210.734 232.972 199.463 231.344 194.889 224.134C193.02 221.162 192.576 217.624 191.365 214.382C190.155 211.141 187.182 209.5 179.367 206.635Z" fill="#0A2240"/>
<path d="M210.173 296.228C211.518 297.762 213.079 299.443 215.258 299.591C217.437 299.739 219.481 298.125 220.961 296.551C228.418 288.7 233.521 278.913 235.69 268.304C233.793 267.228 231.964 266.192 230.309 265.224C228.836 264.374 227.665 263.086 226.96 261.538C226.506 260.442 226.334 259.248 226.462 258.068C227.146 249.185 229.024 240.435 232.044 232.054C215.217 228.234 199.264 223.728 190.118 216.128C189.001 220.836 187.683 230.05 184.872 239.183C181.872 248.854 177.191 258.418 169.255 262.534C184.598 271.52 198.41 282.894 210.173 296.228Z" fill="#F9A07B"/>
<path d="M226.452 258.064C226.323 259.244 226.494 260.437 226.949 261.534C216.969 273.64 194.667 257.822 184.861 239.138C187.673 230.005 188.991 220.791 190.107 216.083C199.24 223.723 215.166 228.256 232.034 232.05C229.012 240.431 227.134 249.181 226.452 258.064Z" fill="#E06A58"/>
<path d="M254.215 404.425C252.009 419.033 267.773 434.757 268.163 442.559C234.684 442.559 164.591 444.603 128.838 439.748C127.211 430.735 144.845 410.465 144.845 390.45C144.845 387.76 144.737 384.895 144.522 381.774C143.957 372.842 142.639 362.216 141.173 351.321C137.138 322.092 131.892 290.792 135.792 284.349C143.459 271.718 161.349 263.136 170.281 259.451C173.334 258.186 175.325 257.5 175.473 257.42C186.624 276.439 209.315 292.661 217.884 291.935C220.264 291.747 227.299 289.245 231.994 265.786C233.81 266.822 235.625 267.777 237.374 268.705C246.238 273.319 254.551 277.125 256.945 283.057C263.267 298.674 269.468 338.045 268.096 352.047C266.724 366.05 261.034 376.958 257.053 391.136C256.125 394.458 255.277 397.982 254.591 401.775C254.511 402.609 254.376 403.497 254.215 404.425Z" fill="#1F51FF"/>
<path d="M268.211 442.55C234.731 442.55 164.638 444.595 128.886 439.739C127.258 430.727 144.892 410.456 144.892 390.441C144.892 387.751 144.785 384.886 144.569 381.766C144.005 372.834 142.686 362.208 141.22 351.313C147.556 358.038 156.796 329.791 160.885 338.023C183.012 382.68 200.458 394.423 230.83 394.423C239.724 394.336 248.579 393.231 257.221 391.127C256.293 394.45 255.446 397.974 254.76 401.767C254.598 402.664 254.45 403.561 254.316 404.457C252.056 419.011 267.821 434.735 268.211 442.55Z" fill="#1F51FF"/>
<path d="M237.465 268.69C236.026 279.142 231.762 293.225 219.36 296.937C202.601 301.955 178.349 270.641 170.318 259.436C173.372 258.172 175.362 257.486 175.51 257.405C186.661 276.425 209.353 292.646 217.921 291.92C220.302 291.732 227.337 289.23 232.031 265.772C233.847 266.794 235.663 267.749 237.465 268.69Z" fill="#537FF9"/>
<path d="M244.377 426.82L244.256 438.482L452.745 439.733L453.176 426.511L244.377 426.82Z" fill="#325F73"/>
<path d="M543.094 322.807L538.453 318.1L386.592 317.091L310.406 427.281L314.387 430.482L543.094 322.807Z" fill="#325F73"/>
<path d="M389.522 321.149L314.385 430.465L457.907 431.164L543.091 322.79L389.522 321.149Z" fill="#0B2D50"/>
<path d="M425.783 390.917C435.009 390.917 442.489 387.178 442.489 382.564C442.489 377.951 435.009 374.211 425.783 374.211C416.556 374.211 409.077 377.951 409.077 382.564C409.077 387.178 416.556 390.917 425.783 390.917Z" fill="#3C738C"/>
<path d="M277.793 218.921C280.16 206.221 275.289 194.66 266.913 193.099C258.536 191.537 249.826 200.566 247.459 213.266C245.091 225.966 249.963 237.527 258.339 239.089C266.715 240.65 275.425 231.621 277.793 218.921Z" fill="#56C4F9"/>
<path d="M277.799 179.051C276.239 190.108 271.302 202.295 264.106 215.759C261.577 204.729 259.963 191.292 257.73 177.854C255.498 164.417 252.565 150.952 247.548 139.923C246.458 137.547 245.227 135.238 243.863 133.009C246.836 132.733 249.836 133.002 252.713 133.803C257.212 135.02 261.36 137.283 264.819 140.407C270.412 145.633 274.488 152.275 276.616 159.628C278.48 165.929 278.885 172.571 277.799 179.051Z" fill="#0B2D50"/>
<path d="M269.365 190.472C269.285 192.651 269.137 194.87 268.935 197.076C265.868 232.856 250.843 257.404 227.856 257.404C195.399 257.404 174.361 221.006 174.361 185.347C174.361 150.173 195.883 124.71 221.13 127.656C235.671 129.324 246.297 134.153 253.843 141.228C258.768 145.932 262.551 151.702 264.9 158.096C267.738 165.885 269.244 174.098 269.352 182.388C269.352 182.388 269.352 182.388 269.352 182.469C269.486 185.078 269.459 187.741 269.365 190.472Z" fill="#F9A07B"/>
<path d="M269.349 190.477C268.396 186.989 266.922 183.665 264.978 180.617C245.439 190.788 223.136 194.369 201.395 190.827L189.208 201.009C189.289 184.733 189.518 173.717 195.934 165.835C201.893 158.437 211.833 155.652 221.249 154.442C231.856 153.049 242.605 153.117 253.195 154.644C257.304 155.042 261.3 156.224 264.964 158.127C267.788 165.942 269.27 174.178 269.349 182.487C269.349 182.487 269.349 182.487 269.349 182.568C269.47 185.083 269.443 187.746 269.349 190.477Z" fill="#E06A58"/>
<path d="M274.028 168.44C269.123 172.417 263.621 175.595 257.725 177.856C239.889 185.052 216.713 187.433 198.649 186.558C189.771 206.062 186.18 213.057 183.853 230.072C175.177 222.002 168.115 207.031 166.017 195.315C163.796 183.563 164.256 171.462 167.362 159.912C169.393 152.933 172.839 146.448 177.486 140.859C182.133 135.271 187.881 130.699 194.371 127.428C196.25 126.41 198.191 125.511 200.182 124.738C211.629 120.312 224.528 120.703 236.271 124.307C242.35 126.225 247.928 129.468 252.6 133.804C261.761 142.076 267.396 153.281 271.082 161.674C272.333 164.243 273.261 166.57 274.028 168.44Z" fill="#0B2D50"/>
<path d="M277.794 179.039C277.074 175.143 275.933 171.337 274.391 167.687C273.5 165.593 272.429 163.581 271.19 161.674C267.251 155.164 261.183 150.217 254.013 147.672C252.07 144.926 249.911 142.34 247.556 139.937C240.116 132.175 230.361 127.031 219.753 125.276C211.283 123.932 202.613 124.671 194.492 127.428C196.371 126.41 198.312 125.511 200.303 124.738C211.75 120.312 224.649 120.703 236.392 124.307C242.471 126.225 248.049 129.468 252.721 133.804C257.221 135.021 261.368 137.284 264.827 140.408C270.419 145.631 274.494 152.267 276.624 159.616C278.477 165.919 278.877 172.56 277.794 179.039Z" fill="#225570"/>
<path d="M208.994 200.979C214.993 197.549 221.221 196.003 229.951 199.19" stroke="#0B2D50" stroke-width="2" stroke-miterlimit="10" stroke-linecap="round"/>
<path d="M250.073 200.738C255.211 196.904 262.824 196.514 266.792 200.738" stroke="#0B2D50" stroke-width="2" stroke-miterlimit="10" stroke-linecap="round"/>
<path d="M243.879 220.296C244.403 222.986 244.121 229.025 242.829 231.729" stroke="#CC454E" stroke-width="2" stroke-miterlimit="10" stroke-linecap="round"/>
<path d="M223.61 222.123C224.977 222.123 226.085 220.377 226.085 218.222C226.085 216.068 224.977 214.322 223.61 214.322C222.243 214.322 221.135 216.068 221.135 218.222C221.135 220.377 222.243 222.123 223.61 222.123Z" fill="#262D40"/>
<path d="M255.969 220.31C257.336 220.31 258.444 218.564 258.444 216.409C258.444 214.255 257.336 212.509 255.969 212.509C254.602 212.509 253.494 214.255 253.494 216.409C253.494 218.564 254.602 220.31 255.969 220.31Z" fill="#262D40"/>
<path d="M240.77 237.042C240.351 237.814 239.879 238.555 239.358 239.262C237.566 241.864 235.016 243.851 232.054 244.951C230.54 245.445 228.926 245.551 227.36 245.261C222.302 244.359 220.97 239.692 220.728 236.101C220.696 235.455 220.696 234.809 220.728 234.164C220.737 233.353 220.8 232.544 220.917 231.742C228.96 236.181 240.77 237.042 240.77 237.042Z" fill="#CC454E"/>
<path d="M240.778 237.042C240.359 237.814 239.887 238.555 239.365 239.262C235.249 239.262 226.829 237.096 220.682 234.164C220.691 233.353 220.754 232.544 220.87 231.742C228.968 236.181 240.778 237.042 240.778 237.042Z" fill="white"/>
<path d="M232.076 244.943C230.562 245.436 228.948 245.542 227.382 245.252C222.324 244.351 220.993 239.683 220.75 236.092C223.27 236.381 225.661 237.361 227.659 238.923C229.658 240.484 231.186 242.568 232.076 244.943Z" fill="#E8729B"/>
<path d="M184.012 194.807C184.173 183.341 186.453 172.004 190.738 161.368C199.494 140.452 217.344 131.507 234.655 130.901C240.906 130.753 247.125 131.85 252.948 134.127C258.772 136.403 264.085 139.815 268.578 144.164C268.578 144.164 261.853 132.179 248.402 128.736C239.605 126.476 226.329 126.046 215.676 130.444C204.7 134.896 191.02 147.258 186.084 160.319C181.147 173.38 178.74 193.717 178.74 193.717L184.012 194.807Z" fill="#3D86E0"/>
<path d="M182.005 238.022C190.896 237.124 197.001 225.473 195.64 212C194.279 198.527 185.968 188.332 177.076 189.23C168.185 190.129 162.08 201.779 163.441 215.252C164.802 228.726 173.113 238.92 182.005 238.022Z" fill="#56C4F9"/>
<path d="M179.541 234.136C185.307 233.269 188.746 224.342 187.221 214.197C185.695 204.052 179.784 196.53 174.017 197.397C168.251 198.264 164.812 207.191 166.337 217.336C167.863 227.482 173.774 235.003 179.541 234.136Z" fill="#1F51FF"/>
<path d="M234.756 257.907C239.54 257.907 243.418 255.492 243.418 252.513C243.418 249.535 239.54 247.12 234.756 247.12C229.972 247.12 226.094 249.535 226.094 252.513C226.094 255.492 229.972 257.907 234.756 257.907Z" fill="#3A92C9"/>
<path d="M191.235 234.478C191.235 234.478 203.959 250.834 226.086 252.516" stroke="#3A92C9" stroke-width="2" stroke-miterlimit="10" stroke-linecap="round"/>
<path d="M244.251 395.692L243.417 417.213C243.417 417.213 165.63 440.524 152.785 433.153C146.517 429.548 140.679 409.721 136.294 390.365C131.721 370.028 128.788 350.228 128.788 350.228L174.387 341.296C174.387 341.296 174.387 369.099 175.961 385.173C176.512 391.159 177.306 395.517 178.369 396.23C182.39 398.866 244.251 395.692 244.251 395.692Z" fill="#F9A07B"/>
<path d="M175.961 385.128C167.675 387.818 151.749 391.974 136.294 390.333C131.721 369.996 128.788 350.196 128.788 350.196L174.387 341.264C174.387 341.264 174.414 369.054 175.961 385.128Z" fill="#E06A58"/>
<path d="M242.018 395.907C253.586 393.432 273.171 387.486 281.295 385.442C287.066 383.989 302.09 391.764 306.058 399.094C307.793 402.296 309.434 420.428 303.368 418.558C300.355 417.616 300.853 409.842 299.911 406.667C299.144 404.085 296.696 401.583 292.97 399.431C295.459 405.632 295.365 411.039 295.096 417.737C295.149 419.22 294.854 420.694 294.235 422.042C293.918 422.697 293.38 423.219 292.715 423.517C292.051 423.815 291.303 423.869 290.603 423.669C289.258 423.104 288.76 421.396 288.451 419.903C287.236 414.586 286.378 409.193 285.882 403.762C285.989 409.505 285.882 415.262 285.505 420.993C285.236 425.378 283.057 427.718 280.38 427.019C279.183 426.682 278.699 425.579 278.188 424.127C277.381 426.938 275.363 430.045 272.808 428.861C271.22 428.148 270.238 422.418 270.521 416.527C265.311 419.574 259.393 421.202 253.357 421.248C247.52 421.517 241.548 420.428 238.037 416.46C238.664 409.491 239.998 402.605 242.018 395.907Z" fill="#F9A07B"/>
<path d="M278.442 423.253C278.834 418.596 278.429 413.906 277.245 409.385" stroke="#CC454E" stroke-miterlimit="10" stroke-linecap="round"/>
<path d="M169.268 296.162C165.959 286.84 153.84 267.767 153.84 267.767C153.84 267.767 135.345 275.461 128.781 288.521C117.671 310.635 123.32 374.123 123.32 374.123C138.291 380.391 168.34 380.486 181.159 378.683C181.132 378.683 175.9 314.791 169.268 296.162Z" fill="#275FFC"/>
<path d="M171.607 300.056C176.413 322.68 179.301 345.668 180.242 368.777L171.607 300.056Z" fill="black"/>
<path d="M171.607 300.056C176.413 322.68 179.301 345.668 180.242 368.777" stroke="black" stroke-miterlimit="10" stroke-linecap="round"/>
<path d="M567.455 435.888H37.1123V449.191H567.455V435.888Z" fill="#0B2D50"/>
</svg>
